<svg xmlns="http://www.w3.org/2000/svg" viewBox="0 0 602.48 222.64"><defs><style>.cls-1{fill:#2f3985;}.cls-2{fill:#e31e26;}.cls-3{fill:#7d7d7d;}</style></defs><g id="Capa_2" data-name="Capa 2"><g id="Capa_1-2" data-name="Capa 1"><path class="cls-1" d="M211.79,74.21c0-6.24,4.25-7.66,8.41-7.66h4.54c4.82,0,7.09,1.89,8.69,7.09L247,117.32h.19l13.33-43.68c1.61-5.2,3.88-7.09,8.7-7.09h4.35c4.16,0,8.42,1.42,8.42,7.66v55.3c0,3.88-1.9,7.57-6.91,7.57s-6.9-3.69-6.9-7.57V87.35h-.19l-14.46,45.19c-1,3.21-3.4,4.54-6.62,4.54s-5.58-1.33-6.62-4.54L225.78,87.35h-.19v42.16c0,3.88-1.89,7.57-6.9,7.57s-6.9-3.69-6.9-7.57Z"/><path class="cls-1" d="M293.74,76.85c0-6.9,3.6-9.07,9.08-9.07h36.4c4.53,0,7.84,1.32,7.84,6.24s-3.31,6.23-7.84,6.23h-30V95h26.28c4.07,0,7.28,1.14,7.28,6s-3.21,6-7.28,6H309.25v16.45H340c4.54,0,7.85,1.32,7.85,6.24s-3.31,6.24-7.85,6.24H302.82c-5.48,0-9.08-2.18-9.08-9.08Z"/><path class="cls-1" d="M372.69,100.77,357.85,78.56a8.36,8.36,0,0,1-1.61-4.73c0-4.07,3.31-7.28,7.75-7.28a7.07,7.07,0,0,1,6.43,3.78l11.25,19.38,12-19.38c1.61-2.55,2.93-3.78,6.34-3.78,3.77,0,7.46,2.08,7.46,7a8.15,8.15,0,0,1-1.41,4.15l-15.79,23.07,15.41,23.16c1.6,2.46,2.55,3.69,2.55,5.49,0,5-3.59,7.66-7.94,7.66a6.66,6.66,0,0,1-6.52-3.6l-12.49-20.89-13.42,21.46a6.77,6.77,0,0,1-6.05,3c-4.54,0-7.47-2.84-7.47-6.62a9.78,9.78,0,0,1,2.08-6Z"/><path class="cls-1" d="M452,131.68c-1.61,4.45-4.63,5.4-9.45,5.4s-7.85-1-9.46-5.4L414,78a13.43,13.43,0,0,1-.94-4.54c0-5.2,4-6.9,7.85-6.9,4.15,0,6.42,2.18,7.84,6.81l14,46.32h.19l14.56-46.32c1.42-4.63,3.69-6.81,7.28-6.81,3.88,0,7.85,1.7,7.85,6.9a13.48,13.48,0,0,1-1,4.54Z"/><path class="cls-1" d="M483.15,76.85c0-6.9,3.59-9.07,9.08-9.07h36.39c4.54,0,7.85,1.32,7.85,6.24s-3.31,6.23-7.85,6.23h-30V95h26.29c4.06,0,7.27,1.14,7.27,6s-3.21,6-7.27,6H498.65v16.45h30.73c4.54,0,7.85,1.32,7.85,6.24s-3.31,6.24-7.85,6.24H492.23c-5.49,0-9.08-2.18-9.08-9.08Z"/><path class="cls-1" d="M564.29,80.83H549.64c-4.45,0-8-2.27-8-6.53s3.59-6.52,8-6.52h44.81c4.44,0,8,2.27,8,6.52s-3.59,6.53-8,6.53H579.79v48.49c0,4.64-3,7.76-7.75,7.76s-7.75-3.12-7.75-7.76Z"/><path class="cls-2" d="M109.86,32.37c-9.74,11.41-25.59,16.38-35.4,11.09s-9.88-18.83-.13-30.25S99.93-3.18,109.74,2.12,119.6,21,109.86,32.37Z"/><path class="cls-3" d="M179.19,106.17A85.6,85.6,0,0,1,155.79,165c2.43,1,4.89,2,7.34,2.88A93.18,93.18,0,0,0,125.45,18.61a32,32,0,0,1-1.81,7.21A86,86,0,0,1,179.19,106.17Z"/><path class="cls-3" d="M71.06,189.15A85.89,85.89,0,0,1,58.66,27.57,32.22,32.22,0,0,1,61,18.65,93.28,93.28,0,0,0,77.79,198.14,90.69,90.69,0,0,1,71.06,189.15Z"/><path class="cls-1" d="M80.1,115.77c8.19,67.49,78.07,81.88,109,84.94l27.09-14.09s-151.68,4.51-111-137.57A82.33,82.33,0,0,1,74.61,63.74c-28.07,95.14,3,148.45,72.34,158.9l17.14-8.91C138.42,209,76.15,189.9,80.1,115.77Z"/><path class="cls-3" d="M249.6,178.39c1.17-.22,2.3-.39,3.42-.51s2.27-.16,3.49-.16q5.16,0,7.75,2c1.72,1.35,2.59,3.43,2.59,6.26q0,8.32-10.52,8.32c-.91,0-2,0-3.18-.13v7.66H249.6ZM260.38,191a4.39,4.39,0,0,0,2.26-1.83,6.24,6.24,0,0,0,.72-3.16,5.26,5.26,0,0,0-1.61-4.25,7.64,7.64,0,0,0-5-1.34,20.39,20.39,0,0,0-3.63.29v10.67a23.58,23.58,0,0,0,3.23.21A11.41,11.41,0,0,0,260.38,191Z"/><path class="cls-3" d="M270.75,184.3h2.87l.27,2.29h.21a5.86,5.86,0,0,1,2.3-1.84,7.18,7.18,0,0,1,3-.65,7.92,7.92,0,0,1,1.58.15v3.16a10.24,10.24,0,0,0-1.77-.13,7.36,7.36,0,0,0-2.76.56,5.23,5.23,0,0,0-2.23,1.62v12.38h-3.48Z"/><path class="cls-3" d="M286.26,201.18a6.67,6.67,0,0,1-2.88-3,11.2,11.2,0,0,1-1-5.06c0-3,.73-5.28,2.19-6.79a9.41,9.41,0,0,1,12.27,0q2.19,2.27,2.19,6.8a11.15,11.15,0,0,1-1,5,6.85,6.85,0,0,1-2.88,3,10.27,10.27,0,0,1-8.84,0Zm8-3.25q1.23-1.47,1.23-4.83c0-2.24-.41-3.86-1.23-4.84a5.07,5.07,0,0,0-7.15,0q-1.23,1.47-1.23,4.8t1.22,4.88a5.07,5.07,0,0,0,7.16,0Z"/><path class="cls-3" d="M305.87,201.23a6.44,6.44,0,0,1-2.66-2.86,11,11,0,0,1-1-4.93c0-3.1.81-5.44,2.43-7s4-2.39,7.09-2.39a21.94,21.94,0,0,1,3.08.25v-8.48h3.48v26.06h-2.93l-.23-1.93H315a6.33,6.33,0,0,1-2.26,1.64,7.16,7.16,0,0,1-3,.6A8,8,0,0,1,305.87,201.23Zm7.07-2.45a4.77,4.77,0,0,0,1.89-1.47V187.09a12,12,0,0,0-3-.34,6.07,6.07,0,0,0-4.56,1.54q-1.49,1.54-1.49,4.86t1.26,4.68a4.56,4.56,0,0,0,3.59,1.42A5.93,5.93,0,0,0,312.94,198.78Z"/><path class="cls-3" d="M324.7,200.52q-1.67-1.61-1.66-5.09V184.3h3.48v10.93a4.06,4.06,0,0,0,.93,3,3.64,3.64,0,0,0,2.64.9,6.53,6.53,0,0,0,2.53-.53,5.81,5.81,0,0,0,2.14-1.55V184.3h3.49v17.54h-2.89l-.24-1.87h-.18a7.9,7.9,0,0,1-2.6,1.62,8.83,8.83,0,0,1-3.08.54A6.26,6.26,0,0,1,324.7,200.52Z"/><path class="cls-3" d="M344.48,199.91q-2.24-2.26-2.23-6.82t2.37-6.82Q347,184,351.55,184a15.17,15.17,0,0,1,4.05.5v2.82a15.43,15.43,0,0,0-3.67-.46,6.3,6.3,0,0,0-4.61,1.46c-1,1-1.48,2.54-1.48,4.7s.47,3.79,1.39,4.78a5.45,5.45,0,0,0,4.2,1.49,10.7,10.7,0,0,0,1.91-.18,21.78,21.78,0,0,0,2.26-.54v2.82a14.18,14.18,0,0,1-4.63.76C348.13,202.17,346,201.41,344.48,199.91Z"/><path class="cls-3" d="M369.76,199v2.83a13.4,13.4,0,0,1-3.08.35,6.6,6.6,0,0,1-4.7-1.53,6.18,6.18,0,0,1-1.62-4.69V187.1H357v-2.8h3.32L361,178h2.87v6.33h5.7v2.8h-5.7v8.23a4.15,4.15,0,0,0,.9,3,3.81,3.81,0,0,0,2.8.9A10.33,10.33,0,0,0,369.76,199Z"/><path class="cls-3" d="M375.38,201.18a6.7,6.7,0,0,1-2.87-3,11.2,11.2,0,0,1-1-5.06c0-3,.73-5.28,2.19-6.79a9.41,9.41,0,0,1,12.27,0c1.46,1.51,2.18,3.78,2.18,6.8a11.16,11.16,0,0,1-1,5,6.87,6.87,0,0,1-2.89,3,9.15,9.15,0,0,1-4.41,1A9.34,9.34,0,0,1,375.38,201.18Zm8-3.25q1.25-1.47,1.24-4.83c0-2.24-.41-3.86-1.24-4.84a5.06,5.06,0,0,0-7.14,0q-1.23,1.47-1.23,4.8c0,2.26.4,3.89,1.22,4.88a5.06,5.06,0,0,0,7.15,0Z"/><path class="cls-3" d="M391.5,201.41V198.8a20,20,0,0,0,5.55.77,6.21,6.21,0,0,0,3.25-.65,2.14,2.14,0,0,0,1-1.9,2,2,0,0,0-.56-1.54,3.88,3.88,0,0,0-2-.81l-2.82-.49a6.58,6.58,0,0,1-3.67-1.66,4.43,4.43,0,0,1-1.13-3.21,4.75,4.75,0,0,1,.83-2.78,5.43,5.43,0,0,1,2.59-1.85A12.55,12.55,0,0,1,399,184a17.33,17.33,0,0,1,4.68.6v2.61a17.19,17.19,0,0,0-4.63-.61q-4.54,0-4.55,2.58a2,2,0,0,0,.55,1.48,3.62,3.62,0,0,0,1.89.83l2.82.5a7.08,7.08,0,0,1,3.71,1.58,4.35,4.35,0,0,1,1.18,3.25,4.67,4.67,0,0,1-.87,2.84,5.35,5.35,0,0,1-2.55,1.84,11.7,11.7,0,0,1-4.15.65A19.1,19.1,0,0,1,391.5,201.41Z"/><path class="cls-3" d="M433.76,178h3.5l-8.82,23.87h-5.15L414.47,178h3.76L426,199.2Z"/><path class="cls-3" d="M452.88,194.13H441a7,7,0,0,0,.75,3.09,4,4,0,0,0,2,1.71,9.43,9.43,0,0,0,3.47.54,18.13,18.13,0,0,0,4.71-.69v2.68a20.17,20.17,0,0,1-5.18.71c-3.1,0-5.42-.74-7-2.2s-2.3-3.77-2.3-6.9a11.84,11.84,0,0,1,.93-5,6.64,6.64,0,0,1,2.7-3.06,8.33,8.33,0,0,1,4.25-1,6.83,6.83,0,0,1,5.57,2.33c1.28,1.56,1.93,3.83,1.93,6.82Zm-10.73-6.43A7,7,0,0,0,441,192h8.6a7.18,7.18,0,0,0-1.13-4.27,3.73,3.73,0,0,0-3.12-1.34A3.9,3.9,0,0,0,442.15,187.7Z"/><path class="cls-3" d="M467,199v2.83a13.33,13.33,0,0,1-3.08.35,6.6,6.6,0,0,1-4.7-1.53,6.18,6.18,0,0,1-1.62-4.69V187.1h-3.32v-2.8h3.32l.61-6.33h2.87v6.33h5.7v2.8h-5.7v8.23a4.15,4.15,0,0,0,.9,3,3.81,3.81,0,0,0,2.8.9A10.26,10.26,0,0,0,467,199Z"/><path class="cls-3" d="M484.1,194.13H472.23a6.69,6.69,0,0,0,.75,3.09,4,4,0,0,0,2,1.71,9.39,9.39,0,0,0,3.47.54,18.13,18.13,0,0,0,4.71-.69v2.68a20.23,20.23,0,0,1-5.18.71c-3.11,0-5.43-.74-7-2.2s-2.3-3.77-2.3-6.9a11.84,11.84,0,0,1,.93-5,6.62,6.62,0,0,1,2.69-3.06,8.39,8.39,0,0,1,4.25-1,6.82,6.82,0,0,1,5.57,2.33q1.93,2.34,1.93,6.82Zm-10.72-6.43a7,7,0,0,0-1.17,4.27h8.6a7.18,7.18,0,0,0-1.12-4.27,3.73,3.73,0,0,0-3.12-1.34A3.89,3.89,0,0,0,473.38,187.7Z"/><path class="cls-3" d="M487.84,184.3h2.87l.28,2.29h.21a5.72,5.72,0,0,1,2.3-1.84,7.13,7.13,0,0,1,3-.65,7.92,7.92,0,0,1,1.58.15v3.16a10.16,10.16,0,0,0-1.77-.13,7.43,7.43,0,0,0-2.76.56,5.26,5.26,0,0,0-2.22,1.62v12.38h-3.49Z"/><path class="cls-3" d="M501,180.38a1.8,1.8,0,0,1-.57-1.44,1.87,1.87,0,0,1,.58-1.47,2.49,2.49,0,0,1,1.69-.51,2.52,2.52,0,0,1,1.7.51,1.9,1.9,0,0,1,.57,1.47,1.8,1.8,0,0,1-.57,1.44,3.09,3.09,0,0,1-3.4,0Zm0,21.46V184.3h3.48v17.54Z"/><path class="cls-3" d="M509.36,184.3h2.88l.25,1.93h.19a8.2,8.2,0,0,1,2.65-1.64,8.9,8.9,0,0,1,3.17-.57,6.24,6.24,0,0,1,4.57,1.64c1.1,1.09,1.66,2.8,1.66,5.14v11h-3.49V191a4.05,4.05,0,0,0-.92-3,3.77,3.77,0,0,0-2.72-.91,6.89,6.89,0,0,0-2.58.51,5.55,5.55,0,0,0-2.18,1.56v12.72h-3.48Z"/><path class="cls-3" d="M539.61,184.67a4.64,4.64,0,0,1,2.47,2.13,8.25,8.25,0,0,1,.83,4v11H540l-.26-1.9h-.19a5.74,5.74,0,0,1-2.29,1.62,7.92,7.92,0,0,1-3,.57,7.28,7.28,0,0,1-3.09-.59,4.45,4.45,0,0,1-2-1.7,4.88,4.88,0,0,1-.68-2.59,4.39,4.39,0,0,1,1.67-3.66,10.35,10.35,0,0,1,5.32-1.62l4-.4v-.95a4.69,4.69,0,0,0-.5-2.35,2.62,2.62,0,0,0-1.5-1.19,8.4,8.4,0,0,0-2.66-.35,17.35,17.35,0,0,0-2.5.2,14.15,14.15,0,0,0-2.57.59v-2.69a16.23,16.23,0,0,1,2.71-.6,20.76,20.76,0,0,1,2.87-.21A12,12,0,0,1,539.61,184.67Zm-2.1,14.51a5.73,5.73,0,0,0,2-1.35V193.7l-3.73.37a5.67,5.67,0,0,0-2.89.91,2.38,2.38,0,0,0-.88,2,2.45,2.45,0,0,0,.8,2,3.66,3.66,0,0,0,2.42.69A6,6,0,0,0,537.51,199.18Z"/><path class="cls-3" d="M547.63,184.3h2.87l.28,2.29H551a5.76,5.76,0,0,1,2.29-1.84,7.18,7.18,0,0,1,3-.65,7.92,7.92,0,0,1,1.58.15v3.16a10.16,10.16,0,0,0-1.77-.13,7.4,7.4,0,0,0-2.76.56,5.29,5.29,0,0,0-2.23,1.62v12.38h-3.48Z"/><path class="cls-3" d="M560.77,180.38a1.8,1.8,0,0,1-.57-1.44,1.87,1.87,0,0,1,.58-1.47,3.06,3.06,0,0,1,3.38,0,1.87,1.87,0,0,1,.58,1.47,1.8,1.8,0,0,1-.57,1.44,3.09,3.09,0,0,1-3.4,0Zm0,21.46V184.3h3.48v17.54Z"/><path class="cls-3" d="M572.11,201.18a6.67,6.67,0,0,1-2.88-3,11.2,11.2,0,0,1-1-5.06c0-3,.73-5.28,2.19-6.79a9.41,9.41,0,0,1,12.27,0q2.19,2.27,2.19,6.8a11.15,11.15,0,0,1-1,5,6.85,6.85,0,0,1-2.88,3,10.27,10.27,0,0,1-8.84,0Zm8-3.25q1.23-1.47,1.23-4.83c0-2.24-.41-3.86-1.23-4.84a5.07,5.07,0,0,0-7.15,0q-1.23,1.47-1.23,4.8t1.22,4.88a5.07,5.07,0,0,0,7.16,0Z"/><path class="cls-3" d="M588.23,201.41V198.8a19.83,19.83,0,0,0,5.54.77,6.21,6.21,0,0,0,3.25-.65,2.12,2.12,0,0,0,1-1.9,2.06,2.06,0,0,0-.55-1.54,3.92,3.92,0,0,0-2-.81l-2.83-.49a6.62,6.62,0,0,1-3.67-1.66,4.47,4.47,0,0,1-1.13-3.21,4.69,4.69,0,0,1,.84-2.78,5.38,5.38,0,0,1,2.59-1.85,12.45,12.45,0,0,1,4.37-.66,17.33,17.33,0,0,1,4.68.6v2.61a17.14,17.14,0,0,0-4.63-.61q-4.54,0-4.55,2.58a2,2,0,0,0,.55,1.48,3.62,3.62,0,0,0,1.89.83l2.82.5a7.08,7.08,0,0,1,3.71,1.58,4.31,4.31,0,0,1,1.18,3.25,4.73,4.73,0,0,1-.86,2.84,5.43,5.43,0,0,1-2.56,1.84,11.7,11.7,0,0,1-4.15.65A19,19,0,0,1,588.23,201.41Z"/></g></g></svg>