<svg width="125" height="125" viewBox="0 0 125 125" fill="none" xmlns="http://www.w3.org/2000/svg">
<g opacity="0.25">
<path d="M27.339 24.8149C23.2862 30.9235 30.1159 38.1975 35.3157 37.2459C40.5155 36.2943 44.8374 31.6735 43.2078 27.3678C41.5783 23.0621 31.3918 18.7063 27.339 24.8149Z" fill="white"/>
<path d="M11.5147 74.0393C13.7593 76.2415 16.2938 74.7723 15.89 72.8256C15.4862 70.8788 13.7734 68.7719 12.2445 68.7945C10.7156 68.817 9.27018 71.837 11.5147 74.0393Z" fill="white"/>
<path d="M112.855 94.3201C117.822 94.5856 119.623 88.524 117.236 85.9829C114.85 83.4418 110.65 82.5535 108.732 84.8212C106.814 87.0888 107.888 94.0546 112.855 94.3201Z" fill="white"/>
</g>
<path d="M87.5059 68.1648C87.5059 68.1648 89.9693 76.869 84.057 84.3688C80.9367 88.3103 87.8342 99.6421 89.0933 100.573C90.4072 101.558 92.542 102.379 92.3778 104.788C92.2135 107.251 91.0093 107.908 87.7247 107.908C84.3854 107.908 80.9912 102.708 79.0204 98.2736C77.0497 93.8941 76.0644 85.9016 76.0644 85.9016C76.0644 85.9016 76.1191 96.1386 69.55 101.23" stroke="white" stroke-width="2" stroke-miterlimit="10" stroke-linecap="round" stroke-linejoin="round"/>
<path d="M57.9992 85.1355C57.9992 85.1355 64.5135 85.1355 66.1558 88.7485C67.7981 92.3616 62.1049 101.285 62.1049 101.285C62.1049 101.285 66.977 101.942 69.6047 101.285C72.2324 100.628 75.1336 103.255 74.9694 105.828C74.8052 108.456 70.2614 107.963 65.663 107.963C61.0646 107.963 45.2988 107.963 42.3427 107.963C36.9779 108.018 31.6128 104.241 29.4778 99.314C28.164 96.2483 27.1239 90.8288 29.0946 86.9967C30.8464 83.4932 37.6347 76.8145 37.4705 71.8876C37.3062 66.9607 31.5035 63.2382 33.4195 60.1179C34.5691 58.2566 38.1274 55.9026 40.5909 58.9682C43.0543 62.0339 46.9411 70.5738 44.3682 76.5956C41.7405 82.6173 33.5835 88.2011 35.8827 93.4017C38.1819 98.6023 42.0687 98.7665 42.0687 98.7665C42.0687 98.7665 42.2332 82.7268 57.3971 71.8329C62.2692 68.3841 64.5135 69.6781 66.1558 66.8862" stroke="white" stroke-width="2" stroke-miterlimit="10" stroke-linecap="round" stroke-linejoin="round"/>
<path d="M86.9971 34.4017L102.282 23.2531L102.286 42.6831" stroke="white" stroke-width="2" stroke-miterlimit="10" stroke-linecap="round" stroke-linejoin="round"/>
<path d="M87.5534 64.9458C85.5124 64.9458 83.8579 63.2789 83.8579 61.2228V56.9544H91.249V61.2228C91.249 63.2789 89.5944 64.9458 87.5534 64.9458Z" stroke="white" stroke-width="2" stroke-miterlimit="10" stroke-linecap="round" stroke-linejoin="round"/>
<path d="M69.3086 54.8213L77.6376 55.6689" stroke="white" stroke-width="2" stroke-miterlimit="10" stroke-linecap="round" stroke-linejoin="round"/>
<path d="M104.292 54.8213L95.9625 55.6689" stroke="white" stroke-width="2" stroke-miterlimit="10" stroke-linecap="round" stroke-linejoin="round"/>
<path d="M69.7031 61.018L77.6377 58.6496" stroke="white" stroke-width="2" stroke-miterlimit="10" stroke-linecap="round" stroke-linejoin="round"/>
<path d="M103.896 61.018L95.962 58.6496" stroke="white" stroke-width="2" stroke-miterlimit="10" stroke-linecap="round" stroke-linejoin="round"/>
<path d="M102.287 42.6831C105.544 46.2763 107.464 50.713 107.464 55.5269C107.464 64.4734 95.3788 68.4843 80.4719 68.4843C65.5649 68.4843 53.48 64.4734 53.48 55.5269C53.48 51.6336 54.8286 47.9107 57.1795 44.6825L57.8116 22.7949L71.5631 35.0141C74.3529 34.2071 77.348 33.765 80.4719 33.765C86.0635 33.765 91.2565 35.1277 95.564 37.4677" stroke="white" stroke-width="2" stroke-miterlimit="10" stroke-linecap="round" stroke-linejoin="round"/>
<path d="M94.3685 50.7531C93.4615 50.7531 92.7263 50.0178 92.7263 49.1108C92.7263 48.2038 93.4615 47.4685 94.3685 47.4685C95.2755 47.4685 96.0107 48.2038 96.0107 49.1108C96.0107 50.0178 95.2755 50.7531 94.3685 50.7531Z" fill="white"/>
<path d="M80.6141 50.7531C79.7071 50.7531 78.9719 50.0178 78.9719 49.1108C78.9719 48.2038 79.7071 47.4685 80.6141 47.4685C81.5211 47.4685 82.2563 48.2038 82.2563 49.1108C82.2563 50.0178 81.5211 50.7531 80.6141 50.7531Z" fill="white"/>
</svg>
