<svg width="215" height="80" viewBox="0 0 215 80" fill="none" xmlns="http://www.w3.org/2000/svg">
<g opacity="0.5">
<path d="M75.4511 26.4391C75.4511 24.2304 76.9473 23.696 78.4435 23.696H80.0466C81.7566 23.696 82.5759 24.3729 83.1459 26.2254L87.9552 41.7931H88.0264L92.7644 26.2254C93.3344 24.3729 94.1538 23.696 95.8637 23.696H97.3955C98.8918 23.696 100.388 24.1948 100.388 26.4391V46.1392C100.388 47.5285 99.7111 48.8466 97.9299 48.8466C96.1487 48.8466 95.4718 47.5285 95.4718 46.1392V31.1058H95.4006L90.2351 47.2079C89.8789 48.3479 89.0239 48.811 87.8839 48.811C86.744 48.811 85.889 48.3479 85.5327 47.2079L80.3673 31.1058H80.296V46.1392C80.296 47.5285 79.6191 48.8466 77.8379 48.8466C76.0567 48.8466 75.3799 47.5285 75.3799 46.1392V26.4391H75.4511Z" fill="white"/>
<path d="M104.628 27.401C104.628 24.9429 105.911 24.1592 107.87 24.1592H120.837C122.44 24.1592 123.616 24.6223 123.616 26.3679C123.616 28.1134 122.44 28.5766 120.837 28.5766H110.15V33.8489H119.519C120.98 33.8489 122.12 34.2408 122.12 35.9864C122.12 37.6963 120.98 38.1238 119.519 38.1238H110.15V44.0018H121.122C122.725 44.0018 123.901 44.4649 123.901 46.2105C123.901 47.956 122.725 48.4192 121.122 48.4192H107.87C105.911 48.4192 104.628 47.6354 104.628 45.1774V27.401Z" fill="white"/>
<path d="M132.771 35.9149L127.498 28.0063C127.142 27.5076 126.928 26.9732 126.928 26.332C126.928 24.8714 128.104 23.7314 129.671 23.7314C130.989 23.7314 131.631 24.5152 131.951 25.0852L135.977 31.9962L140.252 25.0852C140.822 24.1589 141.285 23.7314 142.496 23.7314C143.85 23.7314 145.168 24.4796 145.168 26.2251C145.168 26.6882 144.918 27.3295 144.669 27.7213L139.041 35.9505L144.527 44.2153C145.097 45.1059 145.417 45.5334 145.417 46.1746C145.417 47.9558 144.135 48.9177 142.603 48.9177C141.677 48.9177 140.929 48.7039 140.287 47.6352L135.834 40.1898L131.061 47.7421C130.598 48.5258 129.743 48.8108 128.923 48.8108C127.32 48.8108 126.251 47.8133 126.251 46.4596C126.251 45.8896 126.358 45.284 127 44.3221L132.771 35.9149Z" fill="white"/>
<path d="M161.02 46.9227C160.45 48.4902 159.381 48.8464 157.636 48.8464C155.89 48.8464 154.857 48.5258 154.251 46.9227L147.483 27.7926C147.233 27.1514 147.162 26.617 147.162 26.1895C147.162 24.3371 148.587 23.7314 149.941 23.7314C151.437 23.7314 152.221 24.5152 152.719 26.1539L157.707 42.6478H157.778L162.979 26.1539C163.478 24.5152 164.297 23.7314 165.58 23.7314C166.969 23.7314 168.358 24.3371 168.358 26.1895C168.358 26.617 168.252 27.1514 168.038 27.7926L161.02 46.9227Z" fill="white"/>
<path d="M172.135 27.401C172.135 24.9429 173.418 24.1592 175.377 24.1592H188.344C189.947 24.1592 191.123 24.6223 191.123 26.3679C191.123 28.1134 189.947 28.5766 188.344 28.5766H177.657V33.8489H187.026C188.487 33.8489 189.627 34.2408 189.627 35.9864C189.627 37.6963 188.487 38.1238 187.026 38.1238H177.657V44.0018H188.594C190.197 44.0018 191.372 44.4649 191.372 46.2105C191.372 47.956 190.197 48.4192 188.594 48.4192H175.341C173.382 48.4192 172.1 47.6354 172.1 45.1774V27.401H172.135Z" fill="white"/>
<path d="M201.027 28.7903H195.79C194.222 28.7903 192.94 27.971 192.94 26.4747C192.94 24.9429 194.222 24.1592 195.79 24.1592H211.749C213.317 24.1592 214.599 24.9785 214.599 26.4747C214.599 28.0066 213.317 28.7903 211.749 28.7903H206.513V46.068C206.513 47.7067 205.444 48.8467 203.734 48.8467C202.06 48.8467 200.955 47.7423 200.955 46.068V28.7903H201.027Z" fill="white"/>
<path d="M39.151 11.5483C35.6954 15.6095 30.0312 17.3907 26.5401 15.5026C23.0489 13.6145 23.0133 8.80527 26.5044 4.7085C29.96 0.647358 35.5886 -1.13384 39.0797 0.75423C42.6065 2.64231 42.6065 7.45155 39.151 11.5483Z" fill="white"/>
<path d="M63.8382 37.8388C63.8382 45.961 60.6677 53.3352 55.5022 58.7857C56.3572 59.1776 57.2478 59.4982 58.1028 59.8188C63.3039 53.9408 66.4388 46.246 66.4388 37.8388C66.4388 23.5535 57.3547 11.3345 44.6725 6.63208C44.5656 7.48706 44.3519 8.34203 44.0312 9.19701C55.6091 13.5788 63.8382 24.7647 63.8382 37.8388Z" fill="white"/>
<path d="M25.3287 67.3713C12.2903 63.8802 2.63618 51.9461 2.63618 37.8034C2.63618 25.2993 10.1529 14.5409 20.9113 9.80287C21.0182 8.73414 21.3032 7.66542 21.7307 6.63232C9.04851 11.3347 0 23.5538 0 37.839C0 54.2973 12.0053 67.9769 27.7155 70.6131C26.8605 69.58 26.0412 68.5113 25.3287 67.3713Z" fill="white"/>
<path d="M28.5347 41.2588C31.4558 65.305 56.3571 70.4349 67.3649 71.5036L77.019 66.4806C77.019 66.4806 22.9773 68.0837 37.4763 17.4619C31.9902 21.6656 26.5754 22.6987 26.5754 22.6987C16.565 56.5771 27.6441 75.6004 52.3315 79.3053L58.4233 76.1347C49.3035 74.4604 27.1097 67.6562 28.5347 41.2588Z" fill="white"/>
<path d="M88.917 63.5597C89.3445 63.4884 89.7363 63.4172 90.1282 63.3815C90.5201 63.3459 90.9476 63.3103 91.3751 63.3103C92.5863 63.3103 93.5125 63.5597 94.1537 64.0228C94.7593 64.4859 95.0799 65.234 95.0799 66.2671C95.0799 68.2264 93.8331 69.2239 91.3394 69.2239C91.0188 69.2239 90.6269 69.2239 90.1995 69.1883V71.9313H88.9526V63.5597H88.917ZM92.7644 68.0483C93.1206 67.9058 93.4056 67.6921 93.5837 67.4071C93.7619 67.1221 93.8331 66.7302 93.8331 66.2671C93.8331 65.5902 93.655 65.0559 93.2631 64.7709C92.8713 64.4503 92.3013 64.3078 91.4819 64.3078C91.0188 64.3078 90.5913 64.3434 90.1995 64.4147V68.2264C90.5557 68.262 90.9476 68.2977 91.3394 68.2977C91.9094 68.262 92.4081 68.1908 92.7644 68.0483Z" fill="white"/>
<path d="M96.4336 65.6614H97.4667L97.5736 66.4807H97.6448C97.8586 66.1957 98.1435 65.982 98.4642 65.8395C98.7848 65.697 99.141 65.6257 99.5329 65.6257C99.7466 65.6257 99.9247 65.6257 100.103 65.6614V66.8013C99.9247 66.7657 99.711 66.7657 99.4616 66.7657C99.141 66.7657 98.8204 66.837 98.4642 66.9794C98.1435 67.1219 97.8586 67.3001 97.6804 67.5494V71.9668H96.4336V65.6614Z" fill="white"/>
<path d="M101.991 71.682C101.563 71.4327 101.207 71.0764 100.958 70.6133C100.708 70.1146 100.602 69.5446 100.602 68.7965C100.602 67.7278 100.851 66.9084 101.385 66.374C101.92 65.8397 102.632 65.5547 103.558 65.5547C104.485 65.5547 105.233 65.8397 105.731 66.374C106.266 66.9084 106.515 67.7278 106.515 68.7965C106.515 69.509 106.408 70.1146 106.159 70.5777C105.91 71.0764 105.589 71.4327 105.126 71.6464C104.698 71.8958 104.164 72.0026 103.558 72.0026C102.953 72.0383 102.418 71.8958 101.991 71.682ZM104.841 70.5064C105.126 70.1502 105.268 69.5802 105.268 68.7965C105.268 68.0127 105.126 67.4071 104.841 67.0865C104.556 66.7303 104.128 66.5522 103.558 66.5522C102.988 66.5522 102.561 66.7303 102.276 67.0865C101.991 67.4428 101.848 68.0127 101.848 68.7965C101.848 69.6158 101.991 70.1858 102.276 70.5421C102.561 70.8983 102.988 71.0764 103.558 71.0764C104.093 71.0408 104.52 70.8627 104.841 70.5064Z" fill="white"/>
<path d="M108.974 71.6818C108.582 71.4681 108.261 71.1118 108.012 70.6487C107.763 70.1856 107.656 69.6156 107.656 68.9031C107.656 67.7988 107.941 66.9794 108.511 66.4094C109.081 65.8395 109.936 65.5545 111.04 65.5545C111.361 65.5545 111.717 65.5901 112.144 65.6613V62.6333H113.391V71.9312H112.358L112.287 71.2543H112.216C112.002 71.5037 111.717 71.6818 111.396 71.8243C111.076 71.9668 110.719 72.0381 110.328 72.0381C109.829 72.0381 109.366 71.8956 108.974 71.6818ZM111.468 70.8268C111.717 70.72 111.966 70.5418 112.144 70.2925V66.6588C111.824 66.5876 111.468 66.5519 111.076 66.5519C110.363 66.5519 109.793 66.7301 109.437 67.0863C109.081 67.4425 108.903 68.0125 108.903 68.8319C108.903 69.6156 109.045 70.15 109.366 70.5062C109.651 70.8268 110.078 71.005 110.648 71.005C110.933 70.9693 111.218 70.9337 111.468 70.8268Z" fill="white"/>
<path d="M115.671 71.4322C115.279 71.0404 115.065 70.4348 115.065 69.6154V65.6611H116.312V69.5442C116.312 70.0429 116.419 70.3991 116.633 70.6129C116.847 70.8266 117.167 70.9335 117.559 70.9335C117.844 70.9335 118.165 70.8622 118.45 70.7554C118.735 70.6129 119.02 70.4348 119.198 70.221V65.6968H120.445V71.931H119.412L119.34 71.2541H119.269C118.984 71.5035 118.699 71.6816 118.343 71.8241C117.987 71.9666 117.63 72.0022 117.238 72.0022C116.597 72.0022 116.063 71.8241 115.671 71.4322Z" fill="white"/>
<path d="M122.725 71.2187C122.19 70.6843 121.941 69.865 121.941 68.7963C121.941 67.7275 122.226 66.9082 122.796 66.3738C123.366 65.8395 124.185 65.5901 125.254 65.5901C125.788 65.5901 126.287 65.6613 126.679 65.7682V66.7657C126.216 66.6588 125.788 66.5876 125.361 66.5876C124.613 66.5876 124.078 66.7657 123.722 67.1219C123.366 67.4782 123.188 68.0125 123.188 68.7963C123.188 69.58 123.366 70.15 123.687 70.5062C124.007 70.8624 124.506 71.0406 125.183 71.0406C125.396 71.0406 125.61 71.0049 125.86 70.9693C126.109 70.9337 126.358 70.8624 126.679 70.7912V71.7887C126.145 71.9668 125.61 72.0737 125.04 72.0737C124.007 72.038 123.259 71.753 122.725 71.2187Z" fill="white"/>
<path d="M131.738 70.8981V71.8955C131.381 71.9668 131.025 72.038 130.633 72.038C129.885 72.038 129.351 71.8599 128.959 71.5037C128.567 71.1474 128.389 70.5774 128.389 69.8293V66.6944H127.178V65.6969H128.353L128.567 63.4526H129.6V65.6969H131.631V66.6944H129.6V69.6156C129.6 70.1143 129.707 70.4706 129.921 70.6843C130.135 70.8981 130.455 71.0049 130.918 71.0049C131.168 70.9693 131.417 70.9693 131.738 70.8981Z" fill="white"/>
<path d="M133.732 71.6818C133.304 71.4324 132.948 71.0762 132.699 70.6131C132.449 70.1143 132.342 69.5443 132.342 68.7962C132.342 67.7275 132.592 66.9082 133.126 66.3738C133.66 65.8394 134.373 65.5544 135.299 65.5544C136.225 65.5544 136.973 65.8394 137.472 66.3738C138.007 66.9082 138.256 67.7275 138.256 68.7962C138.256 69.5087 138.149 70.1143 137.9 70.5774C137.65 71.0762 137.33 71.4324 136.867 71.6462C136.439 71.8955 135.905 72.0024 135.299 72.0024C134.693 72.038 134.159 71.8955 133.732 71.6818ZM136.582 70.5062C136.867 70.1499 137.009 69.58 137.009 68.7962C137.009 68.0125 136.867 67.4069 136.582 67.0863C136.297 66.73 135.869 66.5519 135.299 66.5519C134.729 66.5519 134.302 66.73 134.017 67.0863C133.732 67.4425 133.589 68.0125 133.589 68.7962C133.589 69.6156 133.732 70.1856 134.017 70.5418C134.302 70.8981 134.729 71.0762 135.299 71.0762C135.869 71.0405 136.297 70.8624 136.582 70.5062Z" fill="white"/>
<path d="M139.468 71.753V70.8268C140.109 71.0049 140.75 71.1118 141.427 71.1118C141.961 71.1118 142.353 71.0405 142.567 70.8624C142.816 70.7199 142.923 70.4706 142.923 70.1856C142.923 69.9362 142.852 69.7581 142.709 69.6512C142.567 69.5087 142.353 69.4375 141.997 69.3662L141 69.1881C140.394 69.0812 139.966 68.8675 139.681 68.5825C139.396 68.2975 139.29 67.9056 139.29 67.4425C139.29 67.0507 139.396 66.73 139.575 66.445C139.788 66.1601 140.073 65.9463 140.501 65.8038C140.928 65.6613 141.427 65.5544 142.068 65.5544C142.674 65.5544 143.208 65.6257 143.743 65.7682V66.6944C143.208 66.5519 142.674 66.4807 142.104 66.4807C141.035 66.4807 140.501 66.8013 140.501 67.4069C140.501 67.6206 140.572 67.7988 140.679 67.9413C140.821 68.0838 141.035 68.1906 141.356 68.2262L142.353 68.4044C142.959 68.5112 143.386 68.6894 143.671 68.9744C143.956 69.2593 144.099 69.6156 144.099 70.1143C144.099 70.5062 143.992 70.8268 143.778 71.1118C143.564 71.3968 143.279 71.6105 142.852 71.753C142.46 71.8955 141.961 71.9668 141.391 71.9668C140.715 72.038 140.038 71.9311 139.468 71.753Z" fill="white"/>
<path d="M154.537 63.4167H155.783L152.649 71.9309H150.832L147.697 63.4167H149.05L151.794 70.969L154.537 63.4167Z" fill="white"/>
<path d="M161.341 69.1525H157.101C157.137 69.6156 157.208 69.9718 157.386 70.2568C157.529 70.5418 157.778 70.7199 158.099 70.8624C158.419 71.0049 158.811 71.0405 159.346 71.0405C159.844 71.0405 160.414 70.9693 161.02 70.7912V71.753C160.379 71.9311 159.773 72.0024 159.168 72.0024C158.063 72.0024 157.244 71.753 156.674 71.2186C156.139 70.6843 155.854 69.8649 155.854 68.7606C155.854 68.0481 155.961 67.4781 156.175 66.9794C156.389 66.5163 156.709 66.1244 157.137 65.875C157.564 65.6257 158.063 65.5188 158.633 65.5188C159.488 65.5188 160.165 65.8038 160.628 66.3382C161.091 66.9081 161.305 67.6919 161.305 68.7606V69.1525H161.341ZM157.529 66.8725C157.279 67.1931 157.137 67.6919 157.101 68.4043H160.165C160.165 67.6919 160.023 67.1931 159.773 66.8725C159.524 66.5519 159.168 66.4094 158.669 66.4094C158.134 66.4094 157.778 66.5519 157.529 66.8725Z" fill="white"/>
<path d="M166.364 70.8981V71.8955C166.008 71.9668 165.652 72.038 165.26 72.038C164.512 72.038 163.977 71.8599 163.585 71.5037C163.194 71.1474 163.015 70.5774 163.015 69.8293V66.6944H161.84V65.6969H163.015L163.229 63.4526H164.262V65.6969H166.293V66.6944H164.262V69.6156C164.262 70.1143 164.369 70.4706 164.583 70.6843C164.797 70.8981 165.117 71.0049 165.58 71.0049C165.794 70.9693 166.079 70.9693 166.364 70.8981Z" fill="white"/>
<path d="M172.455 69.1525H168.216C168.252 69.6156 168.323 69.9718 168.501 70.2568C168.644 70.5418 168.893 70.7199 169.214 70.8624C169.534 71.0049 169.926 71.0405 170.46 71.0405C170.959 71.0405 171.529 70.9693 172.135 70.7912V71.753C171.493 71.9311 170.888 72.0024 170.282 72.0024C169.178 72.0024 168.359 71.753 167.789 71.2186C167.254 70.6843 166.969 69.8649 166.969 68.7606C166.969 68.0481 167.076 67.4781 167.29 66.9794C167.504 66.5163 167.824 66.1244 168.252 65.875C168.679 65.6257 169.178 65.5188 169.748 65.5188C170.603 65.5188 171.28 65.8038 171.743 66.3382C172.206 66.9081 172.42 67.6919 172.42 68.7606V69.1525H172.455ZM168.644 66.8725C168.394 67.1931 168.252 67.6919 168.216 68.4043H171.28C171.28 67.6919 171.137 67.1931 170.888 66.8725C170.639 66.5519 170.282 66.4094 169.784 66.4094C169.285 66.4094 168.893 66.5519 168.644 66.8725Z" fill="white"/>
<path d="M173.773 65.6614H174.807L174.913 66.4807H174.985C175.198 66.1957 175.483 65.982 175.804 65.8395C176.125 65.697 176.481 65.6257 176.873 65.6257C177.086 65.6257 177.265 65.6257 177.443 65.6614V66.8013C177.265 66.7657 177.051 66.7657 176.801 66.7657C176.481 66.7657 176.16 66.837 175.804 66.9794C175.483 67.1219 175.198 67.3001 175.02 67.5494V71.9668H173.773V65.6614Z" fill="white"/>
<path d="M178.475 64.2718C178.333 64.1649 178.262 63.9868 178.262 63.773C178.262 63.5593 178.333 63.3812 178.475 63.2387C178.618 63.1318 178.832 63.0605 179.081 63.0605C179.33 63.0605 179.544 63.1318 179.687 63.2387C179.829 63.3455 179.9 63.5237 179.9 63.773C179.9 63.9868 179.829 64.1649 179.687 64.2718C179.544 64.3786 179.366 64.4499 179.081 64.4499C178.796 64.4499 178.618 64.3786 178.475 64.2718ZM178.44 71.8953V65.6611H179.687V71.8953H178.44Z" fill="white"/>
<path d="M181.468 65.6613H182.501L182.573 66.3382H182.644C182.929 66.0888 183.214 65.8751 183.606 65.7682C183.962 65.6257 184.354 65.5544 184.746 65.5544C185.423 65.5544 185.993 65.7326 186.384 66.1244C186.776 66.5163 186.99 67.1219 186.99 67.9413V71.8599H185.743V68.0481C185.743 67.5494 185.636 67.1932 185.423 66.9794C185.209 66.7657 184.888 66.6588 184.461 66.6588C184.14 66.6588 183.855 66.73 183.534 66.8369C183.249 66.9438 182.964 67.1575 182.751 67.4069V71.9311H181.504V65.6613H181.468Z" fill="white"/>
<path d="M192.227 65.8038C192.619 65.9463 192.904 66.1957 193.117 66.5519C193.295 66.9082 193.402 67.3713 193.402 67.9769V71.8955H192.369L192.262 71.2187H192.191C191.977 71.468 191.692 71.6462 191.372 71.7887C191.051 71.9311 190.695 72.0024 190.303 72.0024C189.876 72.0024 189.519 71.9311 189.199 71.7887C188.878 71.6462 188.664 71.4324 188.486 71.183C188.308 70.9337 188.237 70.6131 188.237 70.2568C188.237 69.6868 188.451 69.2593 188.842 68.9387C189.234 68.6181 189.876 68.44 190.731 68.3687L192.155 68.2262V67.87C192.155 67.5138 192.084 67.2288 191.977 67.0507C191.87 66.8369 191.692 66.6944 191.443 66.6232C191.194 66.5519 190.873 66.5163 190.481 66.5163C190.196 66.5163 189.911 66.5519 189.591 66.5875C189.27 66.6232 188.985 66.6944 188.664 66.8013V65.8394C188.949 65.7326 189.27 65.6613 189.626 65.6257C189.982 65.5901 190.339 65.5544 190.659 65.5544C191.336 65.5544 191.835 65.6257 192.227 65.8038ZM191.479 70.9693C191.728 70.8624 191.977 70.6843 192.191 70.4706V69.01L190.873 69.1525C190.41 69.1881 190.054 69.295 189.84 69.4731C189.626 69.6512 189.519 69.865 189.519 70.1856C189.519 70.5062 189.626 70.7199 189.804 70.8981C189.982 71.0762 190.267 71.1474 190.659 71.1474C190.944 71.1118 191.229 71.0762 191.479 70.9693Z" fill="white"/>
<path d="M195.077 65.6614H196.11L196.217 66.4807H196.288C196.502 66.1957 196.787 65.982 197.108 65.8395C197.428 65.697 197.785 65.6257 198.176 65.6257C198.39 65.6257 198.568 65.6257 198.746 65.6614V66.8013C198.568 66.7657 198.355 66.7657 198.105 66.7657C197.785 66.7657 197.464 66.837 197.108 66.9794C196.787 67.1219 196.502 67.3001 196.324 67.5494V71.9668H195.077V65.6614Z" fill="white"/>
<path d="M199.779 64.2718C199.636 64.1649 199.565 63.9868 199.565 63.773C199.565 63.5593 199.636 63.3812 199.779 63.2387C199.921 63.1318 200.135 63.0605 200.384 63.0605C200.634 63.0605 200.847 63.1318 200.99 63.2387C201.132 63.3455 201.204 63.5237 201.204 63.773C201.204 63.9868 201.132 64.1649 200.99 64.2718C200.847 64.3786 200.669 64.4499 200.384 64.4499C200.099 64.4499 199.886 64.3786 199.779 64.2718ZM199.743 71.8953V65.6611H200.99V71.8953H199.743Z" fill="white"/>
<path d="M203.805 71.6818C203.377 71.4324 203.021 71.0762 202.772 70.6131C202.522 70.1143 202.416 69.5443 202.416 68.7962C202.416 67.7275 202.665 66.9082 203.199 66.3738C203.734 65.8394 204.446 65.5544 205.372 65.5544C206.299 65.5544 207.047 65.8394 207.545 66.3738C208.08 66.9082 208.329 67.7275 208.329 68.7962C208.329 69.5087 208.222 70.1143 207.973 70.5774C207.724 71.0762 207.403 71.4324 206.94 71.6462C206.512 71.8955 205.978 72.0024 205.372 72.0024C204.767 72.038 204.232 71.8955 203.805 71.6818ZM206.655 70.5062C206.94 70.1499 207.082 69.58 207.082 68.7962C207.082 68.0125 206.94 67.4069 206.655 67.0863C206.37 66.73 205.942 66.5519 205.372 66.5519C204.802 66.5519 204.375 66.73 204.09 67.0863C203.805 67.4425 203.662 68.0125 203.662 68.7962C203.662 69.6156 203.805 70.1856 204.09 70.5418C204.375 70.8981 204.802 71.0762 205.372 71.0762C205.942 71.0405 206.37 70.8624 206.655 70.5062Z" fill="white"/>
<path d="M209.54 71.753V70.8268C210.181 71.0049 210.822 71.1118 211.499 71.1118C212.034 71.1118 212.425 71.0405 212.639 70.8624C212.889 70.7199 212.995 70.4706 212.995 70.1856C212.995 69.9362 212.924 69.7581 212.782 69.6512C212.639 69.5087 212.425 69.4375 212.069 69.3662L211.072 69.1881C210.466 69.0812 210.039 68.8675 209.754 68.5825C209.469 68.2975 209.362 67.9056 209.362 67.4425C209.362 67.0507 209.469 66.73 209.647 66.445C209.861 66.1601 210.146 65.9463 210.573 65.8038C211.001 65.6613 211.499 65.5544 212.14 65.5544C212.746 65.5544 213.28 65.6257 213.815 65.7682V66.6944C213.28 66.5519 212.746 66.4807 212.176 66.4807C211.107 66.4807 210.573 66.8013 210.573 67.4069C210.573 67.6206 210.644 67.7988 210.751 67.9413C210.894 68.0838 211.107 68.1906 211.428 68.2262L212.425 68.4044C213.031 68.5112 213.459 68.6894 213.744 68.9744C214.029 69.2593 214.171 69.6156 214.171 70.1143C214.171 70.5062 214.064 70.8268 213.85 71.1118C213.637 71.3968 213.352 71.6105 212.924 71.753C212.532 71.8955 212.034 71.9668 211.464 71.9668C210.787 72.038 210.146 71.9311 209.54 71.753Z" fill="white"/>
</g>
</svg>
