<svg width="125" height="125" viewBox="0 0 125 125" fill="none" xmlns="http://www.w3.org/2000/svg">
<g opacity="0.25">
<path d="M10.2152 65.8389C4.41313 70.3196 8.54067 79.4036 13.7703 80.1748C18.9998 80.946 24.5781 77.9607 24.4199 73.3597C24.2616 68.7586 16.0172 61.3582 10.2152 65.8389Z" fill="white"/>
<path d="M30.491 49.3639C31.9081 52.1711 34.7805 51.5951 35.0242 49.6218C35.2679 47.6486 34.3237 45.1029 32.8688 44.6325C31.4139 44.1622 29.074 46.5568 30.491 49.3639Z" fill="white"/>
<path d="M110.292 95.1386C114.91 96.9874 118.565 91.827 117.123 88.6535C115.681 85.48 111.989 83.288 109.444 84.8184C106.899 86.3488 105.675 93.2898 110.292 95.1386Z" fill="white"/>
</g>
<path d="M58.8159 62.6188C58.8159 62.6188 52.7773 69.293 47.783 73.2431C35.9327 82.6415 39.8374 99.3499 39.8374 99.3499C39.8374 99.3499 37.2494 96.8981 35.5241 95.5814C33.7987 94.2647 30.6659 92.4486 29.3038 93.9923C27.8964 95.536 27.7601 98.6689 29.3038 100.031M79.1955 64.6496C75.8403 70.6889 79.3836 82.5507 79.9284 85.1841C80.8819 89.6336 83.4243 99.7131 83.9691 101.257C83.9691 101.257 90.3711 100.485 90.3711 105.434C90.3711 110.655 84.4233 109.566 82.1531 109.384C79.883 109.202 72.9816 109.384 72.9816 109.384" stroke="white" stroke-width="2" stroke-miterlimit="10" stroke-linecap="round" stroke-linejoin="round"/>
<path d="M54.503 82.2332C54.503 82.2332 64.7188 80.3263 67.1252 84.6396C69.5316 88.9529 67.9877 96.399 63.3112 102.256C63.3112 102.256 71.0752 102.256 72.9821 102.256C77.9765 102.256 79.7018 109.339 72.9821 109.339C66.2625 109.339 48.7563 109.544 43.9666 108.267C39.177 106.99 30.848 101.393 29.3043 99.9858C27.7606 98.5783 27.9422 95.4909 29.3043 93.9472C30.6664 92.4035 33.7992 94.2196 35.5245 95.5363C37.2499 96.853 39.8379 99.3048 39.8379 99.3048C39.8379 99.3048 35.9332 82.5964 47.7834 73.198C52.7778 69.2479 58.8164 62.5737 58.8164 62.5737" stroke="white" stroke-width="2" stroke-miterlimit="10" stroke-linecap="round" stroke-linejoin="round"/>
<path d="M54.7751 18.3509C65.354 11.1772 66.9431 22.7096 66.9431 22.7096C66.9431 22.7096 70.9842 22.074 75.0705 22.074C79.1567 22.074 83.1975 22.7096 83.1975 22.7096C83.1975 22.7096 84.7412 11.1772 95.3655 18.3509C105.944 25.5246 101.586 38.0105 100.678 39.5542C99.7244 41.0979 95.0476 45.7744 93.0499 31.7448C91.0522 17.7153 85.3768 28.0218 85.3768 28.0218C97.227 49.5429 93.7763 66.9777 85.3768 66.9777C76.9772 66.9777 75.0705 56.3987 75.0705 56.3987C75.0705 56.3987 73.2088 66.9777 64.7639 66.9777C56.3643 66.9777 52.9136 49.4975 64.7639 28.0218C64.7639 28.0218 59.1339 17.7153 57.0907 31.7448C55.093 45.7744 50.4165 41.0979 49.463 39.5542C48.555 37.9651 44.1508 25.5246 54.7751 18.3509Z" stroke="white" stroke-width="2" stroke-miterlimit="10" stroke-linejoin="round"/>
<path d="M80.4275 37.4657C79.6752 37.4657 79.0655 36.8559 79.0655 36.1036C79.0655 35.3514 79.6752 34.7415 80.4275 34.7415C81.1798 34.7415 81.7896 35.3514 81.7896 36.1036C81.7896 36.8559 81.1798 37.4657 80.4275 37.4657Z" fill="white"/>
<path d="M69.6677 37.4657C68.9155 37.4657 68.3057 36.8559 68.3057 36.1036C68.3057 35.3514 68.9155 34.7415 69.6677 34.7415C70.42 34.7415 71.0298 35.3514 71.0298 36.1036C71.0298 36.8559 70.42 37.4657 69.6677 37.4657Z" fill="white"/>
<path d="M75.0249 56.3535C78.1577 56.3535 83.4244 54.492 83.7422 48.5442C84.06 42.6417 77.5221 42.6872 75.0249 42.6872C72.5277 42.6872 65.9898 42.5963 66.3076 48.5442C66.6254 54.492 71.9375 56.3535 75.0249 56.3535Z" fill="white"/>
</svg>
