<svg width="84" height="84" viewBox="0 0 84 84" fill="none" xmlns="http://www.w3.org/2000/svg">
<path d="M26.2794 52.4827C34.5065 52.4827 41.1759 45.8133 41.1759 37.5861C41.1759 29.359 34.5065 22.6896 26.2794 22.6896C18.0522 22.6896 11.3828 29.359 11.3828 37.5861C11.3828 45.8133 18.0522 52.4827 26.2794 52.4827Z" stroke="#E31E26" stroke-width="3" stroke-miterlimit="10" stroke-linecap="round" stroke-linejoin="round"/>
<path d="M31.9281 37.862C35.1722 37.862 38.2674 37.2716 41.1032 36.2068C40.4081 28.6261 34.0357 22.6896 26.2729 22.6896C20.8108 22.6896 16.0384 25.6303 13.4453 30.011C17.9253 34.8165 24.5405 37.862 31.9281 37.862Z" stroke="#E31E26" stroke-width="3" stroke-miterlimit="10" stroke-linecap="round" stroke-linejoin="round"/>
<path d="M2 82C2 68.5931 12.869 57.7242 26.2759 57.7242C39.6827 57.7242 50.5517 68.5931 50.5517 82H2Z" stroke="#E31E26" stroke-width="3" stroke-miterlimit="10" stroke-linecap="round" stroke-linejoin="round"/>
<path d="M54.4766 33.4483H45.7207" stroke="#E31E26" stroke-width="3" stroke-miterlimit="10" stroke-linecap="round" stroke-linejoin="round"/>
<path d="M30.001 17.7241C30.001 9.04 37.041 2 45.7251 2H66.6906C75.3748 2 82.4148 9.04 82.4148 17.7241C82.4148 26.4083 75.3748 33.4483 66.6906 33.4483H63.1044" stroke="#E31E26" stroke-width="3" stroke-miterlimit="10" stroke-linecap="round" stroke-linejoin="round"/>
<path d="M54.4815 33.4483L54.2773 41.1724L63.1049 33.4483" stroke="#E31E26" stroke-width="3" stroke-miterlimit="10" stroke-linecap="round" stroke-linejoin="round"/>
<path d="M46.4314 18.2758C46.4314 18.6662 46.1149 18.9827 45.7245 18.9827C45.3341 18.9827 45.0176 18.6662 45.0176 18.2758C45.0176 17.8854 45.3341 17.5689 45.7245 17.5689C46.1149 17.5689 46.4314 17.8854 46.4314 18.2758Z" stroke="#E31E26" stroke-width="3"/>
<path d="M56.9167 18.2758C56.9167 18.6662 56.6002 18.9827 56.2098 18.9827C55.8194 18.9827 55.5029 18.6662 55.5029 18.2758C55.5029 17.8854 55.8194 17.5689 56.2098 17.5689C56.6002 17.5689 56.9167 17.8854 56.9167 18.2758Z" stroke="#E31E26" stroke-width="3"/>
<path d="M67.3982 18.2758C67.3982 18.6662 67.0817 18.9827 66.6913 18.9827C66.3009 18.9827 65.9844 18.6662 65.9844 18.2758C65.9844 17.8854 66.3009 17.5689 66.6913 17.5689C67.0817 17.5689 67.3982 17.8854 67.3982 18.2758Z" stroke="#E31E26" stroke-width="3"/>
</svg>
