<svg width="90" height="84" viewBox="0 0 90 84" fill="none" xmlns="http://www.w3.org/2000/svg">
<path d="M20.7654 39.5309C31.1293 39.5309 39.5309 31.1293 39.5309 20.7654C39.5309 10.4016 31.1293 2 20.7654 2C10.4016 2 2 10.4016 2 20.7654C2 31.1293 10.4016 39.5309 20.7654 39.5309Z" stroke="#E31E26" stroke-width="3" stroke-miterlimit="10" stroke-linejoin="round"/>
<path d="M36.2385 82C39.6932 82 42.4937 79.1995 42.4937 75.7449C42.4937 72.2902 39.6932 69.4897 36.2385 69.4897C32.7839 69.4897 29.9834 72.2902 29.9834 75.7449C29.9834 79.1995 32.7839 82 36.2385 82Z" stroke="#E31E26" stroke-width="3" stroke-miterlimit="10" stroke-linecap="round" stroke-linejoin="round"/>
<path d="M74.428 82C77.8826 82 80.6831 79.1995 80.6831 75.7449C80.6831 72.2902 77.8826 69.4897 74.428 69.4897C70.9734 69.4897 68.1729 72.2902 68.1729 75.7449C68.1729 79.1995 70.9734 82 74.428 82Z" stroke="#E31E26" stroke-width="3" stroke-miterlimit="10" stroke-linecap="round" stroke-linejoin="round"/>
<path d="M20.7656 10.2304V24.0576H28.6669" stroke="#E31E26" stroke-width="3" stroke-miterlimit="10" stroke-linecap="round" stroke-linejoin="round"/>
<path d="M42.2695 74.0988H62.9049V36.5679H43.1518" stroke="#E31E26" stroke-width="3" stroke-miterlimit="10" stroke-linecap="round" stroke-linejoin="round"/>
<path d="M20.7656 47.1029V74.0988H30.2076" stroke="#E31E26" stroke-width="3" stroke-miterlimit="10" stroke-linecap="round" stroke-linejoin="round"/>
<path d="M2.3291 55.0041H12.8641" stroke="#E31E26" stroke-width="3" stroke-miterlimit="10" stroke-linecap="round" stroke-linejoin="round"/>
<path d="M6.93848 62.9053H12.8644" stroke="#E31E26" stroke-width="3" stroke-miterlimit="10" stroke-linecap="round" stroke-linejoin="round"/>
<path d="M10.8887 70.8066H12.864" stroke="#E31E26" stroke-width="3" stroke-miterlimit="10" stroke-linecap="round" stroke-linejoin="round"/>
<path d="M80.4602 74.0988H83.8182C86.8009 74.0988 88.8881 71.1622 87.9202 68.344L81.698 50.3161C81.0923 48.5646 79.4462 47.3926 77.596 47.3926H62.9062" stroke="#E31E26" stroke-width="3" stroke-miterlimit="10" stroke-linecap="round" stroke-linejoin="round"/>
<path d="M62.9062 74.0988H68.3976" stroke="#E31E26" stroke-width="3" stroke-miterlimit="10" stroke-linecap="round" stroke-linejoin="round"/>
<path d="M62.9062 59.0996H83.7458" stroke="#E31E26" stroke-width="3" stroke-miterlimit="10" stroke-linecap="round" stroke-linejoin="round"/>
</svg>
